<mxfile host="app.diagrams.net" modified="2023-10-29T10:26:26.994Z" agent="Mozilla/5.0 (Windows NT 10.0; Win64; x64) AppleWebKit/537.36 (KHTML, like Gecko) Chrome/118.0.0.0 Safari/537.36" etag="W9iKHkYAbsVr_UewmhaY" version="22.0.8" type="google">
  <diagram name="第 1 页" id="MxNAKYv4jOPvUpUwehuv">
    <mxGraphModel grid="0" page="1" gridSize="10" guides="1" tooltips="1" connect="1" arrows="1" fold="1" pageScale="1" pageWidth="827" pageHeight="1169" math="0" shadow="0">
      <root>
        <mxCell id="0" />
        <mxCell id="1" parent="0" />
        <mxCell id="lKew30cCquWQcN4geTrF-25" value="哺乳類" style="swimlane;fontStyle=0;childLayout=stackLayout;horizontal=1;startSize=26;fillColor=none;horizontalStack=0;resizeParent=1;resizeParentMax=0;resizeLast=0;collapsible=1;marginBottom=0;whiteSpace=wrap;html=1;" vertex="1" parent="1">
          <mxGeometry x="333" y="-208" width="110" height="70" as="geometry" />
        </mxCell>
        <mxCell id="lKew30cCquWQcN4geTrF-26" value="+&amp;nbsp; 陸地生活&lt;br&gt;+&amp;nbsp; 用肺部呼吸" style="text;strokeColor=none;fillColor=none;align=left;verticalAlign=top;spacingLeft=4;spacingRight=4;overflow=hidden;rotatable=0;points=[[0,0.5],[1,0.5]];portConstraint=eastwest;whiteSpace=wrap;html=1;" vertex="1" parent="lKew30cCquWQcN4geTrF-25">
          <mxGeometry y="26" width="110" height="44" as="geometry" />
        </mxCell>
        <mxCell id="lKew30cCquWQcN4geTrF-30" value="魚類" style="swimlane;fontStyle=0;childLayout=stackLayout;horizontal=1;startSize=26;fillColor=none;horizontalStack=0;resizeParent=1;resizeParentMax=0;resizeLast=0;collapsible=1;marginBottom=0;whiteSpace=wrap;html=1;" vertex="1" parent="1">
          <mxGeometry x="468" y="-208" width="110" height="70" as="geometry" />
        </mxCell>
        <mxCell id="lKew30cCquWQcN4geTrF-31" value="+ 海洋生活&lt;br&gt;+ 用鰓呼吸" style="text;strokeColor=none;fillColor=none;align=left;verticalAlign=top;spacingLeft=4;spacingRight=4;overflow=hidden;rotatable=0;points=[[0,0.5],[1,0.5]];portConstraint=eastwest;whiteSpace=wrap;html=1;" vertex="1" parent="lKew30cCquWQcN4geTrF-30">
          <mxGeometry y="26" width="110" height="44" as="geometry" />
        </mxCell>
        <mxCell id="lKew30cCquWQcN4geTrF-21" value="動物" style="swimlane;fontStyle=1;align=center;verticalAlign=top;childLayout=stackLayout;horizontal=1;startSize=26;horizontalStack=0;resizeParent=1;resizeParentMax=0;resizeLast=0;collapsible=1;marginBottom=0;whiteSpace=wrap;html=1;" vertex="1" parent="1">
          <mxGeometry x="443" y="-438" width="160" height="100" as="geometry">
            <mxRectangle x="465" y="-510" width="60" height="30" as="alternateBounds" />
          </mxGeometry>
        </mxCell>
        <mxCell id="lKew30cCquWQcN4geTrF-22" value="- 海洋&lt;br&gt;- 陸地" style="text;strokeColor=none;fillColor=none;align=left;verticalAlign=top;spacingLeft=4;spacingRight=4;overflow=hidden;rotatable=0;points=[[0,0.5],[1,0.5]];portConstraint=eastwest;whiteSpace=wrap;html=1;" vertex="1" parent="lKew30cCquWQcN4geTrF-21">
          <mxGeometry y="26" width="160" height="34" as="geometry" />
        </mxCell>
        <mxCell id="lKew30cCquWQcN4geTrF-23" value="" style="line;strokeWidth=1;fillColor=none;align=left;verticalAlign=middle;spacingTop=-1;spacingLeft=3;spacingRight=3;rotatable=0;labelPosition=right;points=[];portConstraint=eastwest;strokeColor=inherit;" vertex="1" parent="lKew30cCquWQcN4geTrF-21">
          <mxGeometry y="60" width="160" height="8" as="geometry" />
        </mxCell>
        <mxCell id="lKew30cCquWQcN4geTrF-24" value="+活動方式" style="text;strokeColor=none;fillColor=none;align=left;verticalAlign=top;spacingLeft=4;spacingRight=4;overflow=hidden;rotatable=0;points=[[0,0.5],[1,0.5]];portConstraint=eastwest;whiteSpace=wrap;html=1;" vertex="1" parent="lKew30cCquWQcN4geTrF-21">
          <mxGeometry y="68" width="160" height="32" as="geometry" />
        </mxCell>
        <mxCell id="lKew30cCquWQcN4geTrF-34" value="鳥類" style="swimlane;fontStyle=0;childLayout=stackLayout;horizontal=1;startSize=26;fillColor=none;horizontalStack=0;resizeParent=1;resizeParentMax=0;resizeLast=0;collapsible=1;marginBottom=0;whiteSpace=wrap;html=1;" vertex="1" parent="1">
          <mxGeometry x="613" y="-208" width="110" height="70" as="geometry" />
        </mxCell>
        <mxCell id="lKew30cCquWQcN4geTrF-35" value="+ 可以飛翔&lt;br&gt;+ 有羽毛" style="text;strokeColor=none;fillColor=none;align=left;verticalAlign=top;spacingLeft=4;spacingRight=4;overflow=hidden;rotatable=0;points=[[0,0.5],[1,0.5]];portConstraint=eastwest;whiteSpace=wrap;html=1;" vertex="1" parent="lKew30cCquWQcN4geTrF-34">
          <mxGeometry y="26" width="110" height="44" as="geometry" />
        </mxCell>
        <mxCell id="mVfzslmYIJkeSHURZE4W-3" value="陸地" style="html=1;whiteSpace=wrap;" vertex="1" parent="1">
          <mxGeometry x="333" y="-308" width="110" height="50" as="geometry" />
        </mxCell>
        <mxCell id="mVfzslmYIJkeSHURZE4W-7" value="飛翔" style="html=1;whiteSpace=wrap;" vertex="1" parent="1">
          <mxGeometry x="623" y="-308" width="110" height="50" as="geometry" />
        </mxCell>
        <mxCell id="mVfzslmYIJkeSHURZE4W-9" value="" style="endArrow=classic;html=1;rounded=0;entryX=0.5;entryY=0;entryDx=0;entryDy=0;exitX=0.502;exitY=0.986;exitDx=0;exitDy=0;exitPerimeter=0;" edge="1" parent="1" source="lKew30cCquWQcN4geTrF-24" target="mVfzslmYIJkeSHURZE4W-10">
          <mxGeometry width="50" height="50" relative="1" as="geometry">
            <mxPoint x="523" y="-338" as="sourcePoint" />
            <mxPoint x="678" y="-148.99" as="targetPoint" />
          </mxGeometry>
        </mxCell>
        <mxCell id="mVfzslmYIJkeSHURZE4W-10" value="海洋/水" style="html=1;whiteSpace=wrap;" vertex="1" parent="1">
          <mxGeometry x="468" y="-308" width="110" height="50" as="geometry" />
        </mxCell>
        <mxCell id="mVfzslmYIJkeSHURZE4W-13" value="" style="endArrow=classic;html=1;rounded=0;exitX=0.506;exitY=1.01;exitDx=0;exitDy=0;exitPerimeter=0;entryX=0.524;entryY=-0.027;entryDx=0;entryDy=0;entryPerimeter=0;" edge="1" parent="1" source="lKew30cCquWQcN4geTrF-24" target="mVfzslmYIJkeSHURZE4W-7">
          <mxGeometry width="50" height="50" relative="1" as="geometry">
            <mxPoint x="553" y="-228" as="sourcePoint" />
            <mxPoint x="603" y="-278" as="targetPoint" />
          </mxGeometry>
        </mxCell>
        <mxCell id="mVfzslmYIJkeSHURZE4W-15" value="" style="endArrow=classic;html=1;rounded=0;entryX=0.482;entryY=0;entryDx=0;entryDy=0;entryPerimeter=0;exitX=0.496;exitY=0.998;exitDx=0;exitDy=0;exitPerimeter=0;" edge="1" parent="1" source="lKew30cCquWQcN4geTrF-24" target="mVfzslmYIJkeSHURZE4W-3">
          <mxGeometry width="50" height="50" relative="1" as="geometry">
            <mxPoint x="518" y="-338" as="sourcePoint" />
            <mxPoint x="603" y="-278" as="targetPoint" />
          </mxGeometry>
        </mxCell>
        <mxCell id="mVfzslmYIJkeSHURZE4W-16" value="" style="endArrow=classic;html=1;rounded=0;exitX=0.5;exitY=1;exitDx=0;exitDy=0;" edge="1" parent="1" source="mVfzslmYIJkeSHURZE4W-3">
          <mxGeometry width="50" height="50" relative="1" as="geometry">
            <mxPoint x="386" y="-254" as="sourcePoint" />
            <mxPoint x="388" y="-208" as="targetPoint" />
          </mxGeometry>
        </mxCell>
        <mxCell id="mVfzslmYIJkeSHURZE4W-17" value="" style="endArrow=classic;html=1;rounded=0;entryX=0.5;entryY=0;entryDx=0;entryDy=0;exitX=0.5;exitY=1;exitDx=0;exitDy=0;" edge="1" parent="1" source="mVfzslmYIJkeSHURZE4W-10" target="lKew30cCquWQcN4geTrF-30">
          <mxGeometry width="50" height="50" relative="1" as="geometry">
            <mxPoint x="533" y="-208" as="sourcePoint" />
            <mxPoint x="583" y="-258" as="targetPoint" />
          </mxGeometry>
        </mxCell>
        <mxCell id="mVfzslmYIJkeSHURZE4W-18" value="" style="endArrow=classic;html=1;rounded=0;entryX=0.538;entryY=0;entryDx=0;entryDy=0;entryPerimeter=0;exitX=0.447;exitY=1;exitDx=0;exitDy=0;exitPerimeter=0;" edge="1" parent="1" source="mVfzslmYIJkeSHURZE4W-7" target="lKew30cCquWQcN4geTrF-34">
          <mxGeometry width="50" height="50" relative="1" as="geometry">
            <mxPoint x="533" y="-208" as="sourcePoint" />
            <mxPoint x="583" y="-258" as="targetPoint" />
          </mxGeometry>
        </mxCell>
        <mxCell id="Myq15FE9jz4CKUxJbDYA-46" value="&lt;font style=&quot;font-size: 51px;&quot;&gt;類圖&lt;/font&gt;" style="text;html=1;align=center;verticalAlign=middle;resizable=0;points=[];autosize=1;strokeColor=none;fillColor=none;" vertex="1" parent="1">
          <mxGeometry x="495" y="-1160" width="130" height="70" as="geometry" />
        </mxCell>
        <mxCell id="Myq15FE9jz4CKUxJbDYA-47" value="" style="endArrow=none;html=1;rounded=0;" edge="1" parent="1">
          <mxGeometry width="50" height="50" relative="1" as="geometry">
            <mxPoint x="-32" y="-568" as="sourcePoint" />
            <mxPoint x="1208" y="-568" as="targetPoint" />
          </mxGeometry>
        </mxCell>
        <mxCell id="Myq15FE9jz4CKUxJbDYA-48" value="&lt;font style=&quot;font-size: 51px;&quot;&gt;對象圖&lt;/font&gt;" style="text;html=1;align=center;verticalAlign=middle;resizable=0;points=[];autosize=1;strokeColor=none;fillColor=none;" vertex="1" parent="1">
          <mxGeometry x="418" y="-560" width="180" height="70" as="geometry" />
        </mxCell>
        <mxCell id="AQXggsPog80rByoyXxnN-4" value="鳥類" style="swimlane;fontStyle=1;align=center;verticalAlign=top;childLayout=stackLayout;horizontal=1;startSize=26;horizontalStack=0;resizeParent=1;resizeParentMax=0;resizeLast=0;collapsible=1;marginBottom=0;whiteSpace=wrap;html=1;" vertex="1" parent="1">
          <mxGeometry x="507.5" y="-920" width="100" height="94" as="geometry" />
        </mxCell>
        <mxCell id="AQXggsPog80rByoyXxnN-5" value="+ 羽毛&lt;br&gt;+ 沒有牙齒" style="text;strokeColor=none;fillColor=none;align=left;verticalAlign=top;spacingLeft=4;spacingRight=4;overflow=hidden;rotatable=0;points=[[0,0.5],[1,0.5]];portConstraint=eastwest;whiteSpace=wrap;html=1;" vertex="1" parent="AQXggsPog80rByoyXxnN-4">
          <mxGeometry y="26" width="100" height="34" as="geometry" />
        </mxCell>
        <mxCell id="AQXggsPog80rByoyXxnN-6" value="" style="line;strokeWidth=1;fillColor=none;align=left;verticalAlign=middle;spacingTop=-1;spacingLeft=3;spacingRight=3;rotatable=0;labelPosition=right;points=[];portConstraint=eastwest;strokeColor=inherit;" vertex="1" parent="AQXggsPog80rByoyXxnN-4">
          <mxGeometry y="60" width="100" height="8" as="geometry" />
        </mxCell>
        <mxCell id="AQXggsPog80rByoyXxnN-7" value="+ 卵生" style="text;strokeColor=none;fillColor=none;align=left;verticalAlign=top;spacingLeft=4;spacingRight=4;overflow=hidden;rotatable=0;points=[[0,0.5],[1,0.5]];portConstraint=eastwest;whiteSpace=wrap;html=1;" vertex="1" parent="AQXggsPog80rByoyXxnN-4">
          <mxGeometry y="68" width="100" height="26" as="geometry" />
        </mxCell>
        <mxCell id="AQXggsPog80rByoyXxnN-8" value="動物" style="swimlane;fontStyle=1;align=center;verticalAlign=top;childLayout=stackLayout;horizontal=1;startSize=26;horizontalStack=0;resizeParent=1;resizeParentMax=0;resizeLast=0;collapsible=1;marginBottom=0;whiteSpace=wrap;html=1;" vertex="1" parent="1">
          <mxGeometry x="512.5" y="-1080" width="95" height="100" as="geometry" />
        </mxCell>
        <mxCell id="AQXggsPog80rByoyXxnN-9" value="+ 有生命" style="text;strokeColor=none;fillColor=none;align=left;verticalAlign=top;spacingLeft=4;spacingRight=4;overflow=hidden;rotatable=0;points=[[0,0.5],[1,0.5]];portConstraint=eastwest;whiteSpace=wrap;html=1;" vertex="1" parent="AQXggsPog80rByoyXxnN-8">
          <mxGeometry y="26" width="95" height="26" as="geometry" />
        </mxCell>
        <mxCell id="AQXggsPog80rByoyXxnN-10" value="" style="line;strokeWidth=1;fillColor=none;align=left;verticalAlign=middle;spacingTop=-1;spacingLeft=3;spacingRight=3;rotatable=0;labelPosition=right;points=[];portConstraint=eastwest;strokeColor=inherit;" vertex="1" parent="AQXggsPog80rByoyXxnN-8">
          <mxGeometry y="52" width="95" height="8" as="geometry" />
        </mxCell>
        <mxCell id="AQXggsPog80rByoyXxnN-11" value="+ 繁殖&lt;br&gt;+ 吃東西" style="text;strokeColor=none;fillColor=none;align=left;verticalAlign=top;spacingLeft=4;spacingRight=4;overflow=hidden;rotatable=0;points=[[0,0.5],[1,0.5]];portConstraint=eastwest;whiteSpace=wrap;html=1;" vertex="1" parent="AQXggsPog80rByoyXxnN-8">
          <mxGeometry y="60" width="95" height="40" as="geometry" />
        </mxCell>
        <mxCell id="AQXggsPog80rByoyXxnN-12" value="" style="endArrow=classic;html=1;rounded=0;entryX=0.5;entryY=1;entryDx=0;entryDy=0;entryPerimeter=0;exitX=0.527;exitY=-0.008;exitDx=0;exitDy=0;exitPerimeter=0;" edge="1" parent="1" source="AQXggsPog80rByoyXxnN-4" target="AQXggsPog80rByoyXxnN-11">
          <mxGeometry width="50" height="50" relative="1" as="geometry">
            <mxPoint x="590" y="-840" as="sourcePoint" />
            <mxPoint x="640" y="-890" as="targetPoint" />
          </mxGeometry>
        </mxCell>
        <mxCell id="AQXggsPog80rByoyXxnN-13" value="雞" style="swimlane;fontStyle=1;align=center;verticalAlign=top;childLayout=stackLayout;horizontal=1;startSize=26;horizontalStack=0;resizeParent=1;resizeParentMax=0;resizeLast=0;collapsible=1;marginBottom=0;whiteSpace=wrap;html=1;" vertex="1" parent="1">
          <mxGeometry x="510" y="-800" width="100" height="94" as="geometry" />
        </mxCell>
        <mxCell id="AQXggsPog80rByoyXxnN-14" value="+ 羽毛&lt;br&gt;+ 沒有牙齒" style="text;strokeColor=none;fillColor=none;align=left;verticalAlign=top;spacingLeft=4;spacingRight=4;overflow=hidden;rotatable=0;points=[[0,0.5],[1,0.5]];portConstraint=eastwest;whiteSpace=wrap;html=1;" vertex="1" parent="AQXggsPog80rByoyXxnN-13">
          <mxGeometry y="26" width="100" height="34" as="geometry" />
        </mxCell>
        <mxCell id="AQXggsPog80rByoyXxnN-15" value="" style="line;strokeWidth=1;fillColor=none;align=left;verticalAlign=middle;spacingTop=-1;spacingLeft=3;spacingRight=3;rotatable=0;labelPosition=right;points=[];portConstraint=eastwest;strokeColor=inherit;" vertex="1" parent="AQXggsPog80rByoyXxnN-13">
          <mxGeometry y="60" width="100" height="8" as="geometry" />
        </mxCell>
        <mxCell id="AQXggsPog80rByoyXxnN-16" value="+ 卵生" style="text;strokeColor=none;fillColor=none;align=left;verticalAlign=top;spacingLeft=4;spacingRight=4;overflow=hidden;rotatable=0;points=[[0,0.5],[1,0.5]];portConstraint=eastwest;whiteSpace=wrap;html=1;" vertex="1" parent="AQXggsPog80rByoyXxnN-13">
          <mxGeometry y="68" width="100" height="26" as="geometry" />
        </mxCell>
        <mxCell id="AQXggsPog80rByoyXxnN-17" value="企鵝" style="swimlane;fontStyle=1;align=center;verticalAlign=top;childLayout=stackLayout;horizontal=1;startSize=26;horizontalStack=0;resizeParent=1;resizeParentMax=0;resizeLast=0;collapsible=1;marginBottom=0;whiteSpace=wrap;html=1;" vertex="1" parent="1">
          <mxGeometry x="395" y="-800" width="100" height="114" as="geometry" />
        </mxCell>
        <mxCell id="AQXggsPog80rByoyXxnN-18" value="+ 羽毛&lt;br&gt;+ 沒有牙齒&lt;br&gt;+ 生態圈" style="text;strokeColor=none;fillColor=none;align=left;verticalAlign=top;spacingLeft=4;spacingRight=4;overflow=hidden;rotatable=0;points=[[0,0.5],[1,0.5]];portConstraint=eastwest;whiteSpace=wrap;html=1;" vertex="1" parent="AQXggsPog80rByoyXxnN-17">
          <mxGeometry y="26" width="100" height="54" as="geometry" />
        </mxCell>
        <mxCell id="AQXggsPog80rByoyXxnN-19" value="" style="line;strokeWidth=1;fillColor=none;align=left;verticalAlign=middle;spacingTop=-1;spacingLeft=3;spacingRight=3;rotatable=0;labelPosition=right;points=[];portConstraint=eastwest;strokeColor=inherit;" vertex="1" parent="AQXggsPog80rByoyXxnN-17">
          <mxGeometry y="80" width="100" height="8" as="geometry" />
        </mxCell>
        <mxCell id="AQXggsPog80rByoyXxnN-20" value="+ 卵生" style="text;strokeColor=none;fillColor=none;align=left;verticalAlign=top;spacingLeft=4;spacingRight=4;overflow=hidden;rotatable=0;points=[[0,0.5],[1,0.5]];portConstraint=eastwest;whiteSpace=wrap;html=1;" vertex="1" parent="AQXggsPog80rByoyXxnN-17">
          <mxGeometry y="88" width="100" height="26" as="geometry" />
        </mxCell>
        <mxCell id="AQXggsPog80rByoyXxnN-29" style="edgeStyle=orthogonalEdgeStyle;rounded=0;orthogonalLoop=1;jettySize=auto;html=1;entryX=0.526;entryY=1.001;entryDx=0;entryDy=0;entryPerimeter=0;" edge="1" parent="1" source="AQXggsPog80rByoyXxnN-21" target="AQXggsPog80rByoyXxnN-7">
          <mxGeometry relative="1" as="geometry">
            <mxPoint x="560" y="-820" as="targetPoint" />
            <Array as="points">
              <mxPoint x="680" y="-810" />
              <mxPoint x="560" y="-810" />
            </Array>
          </mxGeometry>
        </mxCell>
        <mxCell id="AQXggsPog80rByoyXxnN-21" value="鷹" style="swimlane;fontStyle=1;align=center;verticalAlign=top;childLayout=stackLayout;horizontal=1;startSize=26;horizontalStack=0;resizeParent=1;resizeParentMax=0;resizeLast=0;collapsible=1;marginBottom=0;whiteSpace=wrap;html=1;" vertex="1" parent="1">
          <mxGeometry x="630" y="-800" width="100" height="110" as="geometry" />
        </mxCell>
        <mxCell id="AQXggsPog80rByoyXxnN-22" value="+ 羽毛&lt;br&gt;+ 沒有牙齒" style="text;strokeColor=none;fillColor=none;align=left;verticalAlign=top;spacingLeft=4;spacingRight=4;overflow=hidden;rotatable=0;points=[[0,0.5],[1,0.5]];portConstraint=eastwest;whiteSpace=wrap;html=1;" vertex="1" parent="AQXggsPog80rByoyXxnN-21">
          <mxGeometry y="26" width="100" height="34" as="geometry" />
        </mxCell>
        <mxCell id="AQXggsPog80rByoyXxnN-23" value="" style="line;strokeWidth=1;fillColor=none;align=left;verticalAlign=middle;spacingTop=-1;spacingLeft=3;spacingRight=3;rotatable=0;labelPosition=right;points=[];portConstraint=eastwest;strokeColor=inherit;" vertex="1" parent="AQXggsPog80rByoyXxnN-21">
          <mxGeometry y="60" width="100" height="8" as="geometry" />
        </mxCell>
        <mxCell id="AQXggsPog80rByoyXxnN-24" value="+ 卵生&lt;br&gt;+ 飛翔" style="text;strokeColor=none;fillColor=none;align=left;verticalAlign=top;spacingLeft=4;spacingRight=4;overflow=hidden;rotatable=0;points=[[0,0.5],[1,0.5]];portConstraint=eastwest;whiteSpace=wrap;html=1;" vertex="1" parent="AQXggsPog80rByoyXxnN-21">
          <mxGeometry y="68" width="100" height="42" as="geometry" />
        </mxCell>
        <mxCell id="AQXggsPog80rByoyXxnN-28" style="edgeStyle=orthogonalEdgeStyle;rounded=0;orthogonalLoop=1;jettySize=auto;html=1;entryX=0.526;entryY=1.005;entryDx=0;entryDy=0;entryPerimeter=0;" edge="1" parent="1" source="AQXggsPog80rByoyXxnN-13" target="AQXggsPog80rByoyXxnN-7">
          <mxGeometry relative="1" as="geometry" />
        </mxCell>
        <mxCell id="AQXggsPog80rByoyXxnN-31" value="" style="endArrow=classic;html=1;rounded=0;exitX=0.451;exitY=-0.003;exitDx=0;exitDy=0;exitPerimeter=0;entryX=0.53;entryY=1.007;entryDx=0;entryDy=0;entryPerimeter=0;" edge="1" parent="1" source="AQXggsPog80rByoyXxnN-17" target="AQXggsPog80rByoyXxnN-7">
          <mxGeometry width="50" height="50" relative="1" as="geometry">
            <mxPoint x="550" y="-790" as="sourcePoint" />
            <mxPoint x="600" y="-840" as="targetPoint" />
            <Array as="points">
              <mxPoint x="440" y="-810" />
              <mxPoint x="560" y="-810" />
            </Array>
          </mxGeometry>
        </mxCell>
        <mxCell id="AQXggsPog80rByoyXxnN-32" value="氣候" style="swimlane;fontStyle=1;align=center;verticalAlign=top;childLayout=stackLayout;horizontal=1;startSize=26;horizontalStack=0;resizeParent=1;resizeParentMax=0;resizeLast=0;collapsible=1;marginBottom=0;whiteSpace=wrap;html=1;" vertex="1" parent="1">
          <mxGeometry x="260" y="-772" width="50" height="86" as="geometry" />
        </mxCell>
        <mxCell id="AQXggsPog80rByoyXxnN-33" value="+ 環境" style="text;strokeColor=none;fillColor=none;align=left;verticalAlign=top;spacingLeft=4;spacingRight=4;overflow=hidden;rotatable=0;points=[[0,0.5],[1,0.5]];portConstraint=eastwest;whiteSpace=wrap;html=1;" vertex="1" parent="AQXggsPog80rByoyXxnN-32">
          <mxGeometry y="26" width="50" height="26" as="geometry" />
        </mxCell>
        <mxCell id="AQXggsPog80rByoyXxnN-34" value="" style="line;strokeWidth=1;fillColor=none;align=left;verticalAlign=middle;spacingTop=-1;spacingLeft=3;spacingRight=3;rotatable=0;labelPosition=right;points=[];portConstraint=eastwest;strokeColor=inherit;" vertex="1" parent="AQXggsPog80rByoyXxnN-32">
          <mxGeometry y="52" width="50" height="8" as="geometry" />
        </mxCell>
        <mxCell id="AQXggsPog80rByoyXxnN-35" value="+ 溫度" style="text;strokeColor=none;fillColor=none;align=left;verticalAlign=top;spacingLeft=4;spacingRight=4;overflow=hidden;rotatable=0;points=[[0,0.5],[1,0.5]];portConstraint=eastwest;whiteSpace=wrap;html=1;" vertex="1" parent="AQXggsPog80rByoyXxnN-32">
          <mxGeometry y="60" width="50" height="26" as="geometry" />
        </mxCell>
        <mxCell id="AQXggsPog80rByoyXxnN-36" value="" style="endArrow=classic;html=1;rounded=0;exitX=0.002;exitY=0.675;exitDx=0;exitDy=0;exitPerimeter=0;entryX=1;entryY=0.355;entryDx=0;entryDy=0;entryPerimeter=0;" edge="1" parent="1" source="AQXggsPog80rByoyXxnN-18" target="AQXggsPog80rByoyXxnN-33">
          <mxGeometry width="50" height="50" relative="1" as="geometry">
            <mxPoint x="280" y="-760" as="sourcePoint" />
            <mxPoint x="330" y="-810" as="targetPoint" />
          </mxGeometry>
        </mxCell>
        <mxCell id="AQXggsPog80rByoyXxnN-37" value="關聯" style="text;html=1;align=center;verticalAlign=middle;resizable=0;points=[];autosize=1;strokeColor=none;fillColor=none;" vertex="1" parent="1">
          <mxGeometry x="330" y="-768" width="50" height="30" as="geometry" />
        </mxCell>
        <mxCell id="AQXggsPog80rByoyXxnN-38" value="依賴" style="endArrow=open;endSize=12;dashed=1;html=1;rounded=0;entryX=-0.014;entryY=0.051;entryDx=0;entryDy=0;entryPerimeter=0;" edge="1" parent="1" target="AQXggsPog80rByoyXxnN-40">
          <mxGeometry x="-0.2195" y="-20" width="160" relative="1" as="geometry">
            <mxPoint x="607.5" y="-1040" as="sourcePoint" />
            <mxPoint x="710" y="-1040" as="targetPoint" />
            <Array as="points">
              <mxPoint x="680" y="-1040" />
              <mxPoint x="680" y="-1073" />
            </Array>
            <mxPoint as="offset" />
          </mxGeometry>
        </mxCell>
        <mxCell id="AQXggsPog80rByoyXxnN-39" value="氧氣" style="swimlane;fontStyle=1;align=center;verticalAlign=top;childLayout=stackLayout;horizontal=1;startSize=26;horizontalStack=0;resizeParent=1;resizeParentMax=0;resizeLast=0;collapsible=1;marginBottom=0;whiteSpace=wrap;html=1;" vertex="1" parent="1">
          <mxGeometry x="710" y="-1100" width="70" height="86" as="geometry" />
        </mxCell>
        <mxCell id="AQXggsPog80rByoyXxnN-40" value="+ 元素" style="text;strokeColor=none;fillColor=none;align=left;verticalAlign=top;spacingLeft=4;spacingRight=4;overflow=hidden;rotatable=0;points=[[0,0.5],[1,0.5]];portConstraint=eastwest;whiteSpace=wrap;html=1;" vertex="1" parent="AQXggsPog80rByoyXxnN-39">
          <mxGeometry y="26" width="70" height="26" as="geometry" />
        </mxCell>
        <mxCell id="AQXggsPog80rByoyXxnN-41" value="" style="line;strokeWidth=1;fillColor=none;align=left;verticalAlign=middle;spacingTop=-1;spacingLeft=3;spacingRight=3;rotatable=0;labelPosition=right;points=[];portConstraint=eastwest;strokeColor=inherit;" vertex="1" parent="AQXggsPog80rByoyXxnN-39">
          <mxGeometry y="52" width="70" height="8" as="geometry" />
        </mxCell>
        <mxCell id="AQXggsPog80rByoyXxnN-42" value="+ 呼吸" style="text;strokeColor=none;fillColor=none;align=left;verticalAlign=top;spacingLeft=4;spacingRight=4;overflow=hidden;rotatable=0;points=[[0,0.5],[1,0.5]];portConstraint=eastwest;whiteSpace=wrap;html=1;" vertex="1" parent="AQXggsPog80rByoyXxnN-39">
          <mxGeometry y="60" width="70" height="26" as="geometry" />
        </mxCell>
        <mxCell id="AQXggsPog80rByoyXxnN-43" value="" style="endArrow=open;endSize=12;dashed=1;html=1;rounded=0;" edge="1" parent="1">
          <mxGeometry width="160" relative="1" as="geometry">
            <mxPoint x="607.5" y="-1040" as="sourcePoint" />
            <mxPoint x="710" y="-960" as="targetPoint" />
            <Array as="points">
              <mxPoint x="680" y="-1040" />
              <mxPoint x="680" y="-960" />
            </Array>
          </mxGeometry>
        </mxCell>
        <mxCell id="AQXggsPog80rByoyXxnN-44" value="水" style="swimlane;fontStyle=1;align=center;verticalAlign=top;childLayout=stackLayout;horizontal=1;startSize=26;horizontalStack=0;resizeParent=1;resizeParentMax=0;resizeLast=0;collapsible=1;marginBottom=0;whiteSpace=wrap;html=1;" vertex="1" parent="1">
          <mxGeometry x="710" y="-990" width="70" height="86" as="geometry" />
        </mxCell>
        <mxCell id="AQXggsPog80rByoyXxnN-45" value="+ 元素" style="text;strokeColor=none;fillColor=none;align=left;verticalAlign=top;spacingLeft=4;spacingRight=4;overflow=hidden;rotatable=0;points=[[0,0.5],[1,0.5]];portConstraint=eastwest;whiteSpace=wrap;html=1;" vertex="1" parent="AQXggsPog80rByoyXxnN-44">
          <mxGeometry y="26" width="70" height="26" as="geometry" />
        </mxCell>
        <mxCell id="AQXggsPog80rByoyXxnN-46" value="" style="line;strokeWidth=1;fillColor=none;align=left;verticalAlign=middle;spacingTop=-1;spacingLeft=3;spacingRight=3;rotatable=0;labelPosition=right;points=[];portConstraint=eastwest;strokeColor=inherit;" vertex="1" parent="AQXggsPog80rByoyXxnN-44">
          <mxGeometry y="52" width="70" height="8" as="geometry" />
        </mxCell>
        <mxCell id="AQXggsPog80rByoyXxnN-47" value="+ 喝" style="text;strokeColor=none;fillColor=none;align=left;verticalAlign=top;spacingLeft=4;spacingRight=4;overflow=hidden;rotatable=0;points=[[0,0.5],[1,0.5]];portConstraint=eastwest;whiteSpace=wrap;html=1;" vertex="1" parent="AQXggsPog80rByoyXxnN-44">
          <mxGeometry y="60" width="70" height="26" as="geometry" />
        </mxCell>
      </root>
    </mxGraphModel>
  </diagram>
</mxfile>
